<svg width="591" height="257" viewBox="0 0 591 257" fill="none" xmlns="http://www.w3.org/2000/svg">
<path d="M227.721 42.5079C225.561 42.9189 223.861 44.5292 223.251 46.7503L223.101 47.2834L223.084 72.3824C223.067 97.8811 223.073 98.4586 223.273 100.202C223.967 106.294 226.366 111.863 230.369 116.666C231.202 117.672 233.296 119.771 234.29 120.609C240.242 125.618 247.594 128.211 255.335 128.033C260.938 127.9 266.052 126.417 270.883 123.508C273.077 122.192 274.953 120.715 276.858 118.81C278.502 117.161 279.618 115.795 280.856 113.918C283.399 110.053 285.049 105.727 285.704 101.202C286.115 98.3531 286.115 94.9103 285.704 92.0395C284.854 86.1479 282.272 80.5118 278.313 75.9084C274.62 71.6161 269.689 68.4343 264.242 66.8295C259.122 65.3191 253.741 65.197 248.572 66.4686C243.519 67.718 239.121 70.1224 235.206 73.7817L234.429 74.5091L234.401 60.8435C234.373 48.3662 234.362 47.139 234.279 46.8059C233.734 44.6514 232.302 43.1188 230.358 42.6079C229.67 42.4302 228.398 42.3802 227.721 42.5079ZM255.752 76.6858C257.218 76.7691 258.328 76.9357 259.694 77.2744C266.391 78.9459 271.744 84.0212 273.793 90.6346C274.215 92.0006 274.476 93.3555 274.609 94.8937C274.692 95.8599 274.648 98.3031 274.526 99.2305C274.326 100.769 273.921 102.373 273.371 103.828C273.032 104.722 272.171 106.46 271.661 107.271C269.056 111.425 264.875 114.54 260.094 115.889C256.14 117.011 251.631 116.861 247.839 115.484C244.957 114.44 242.447 112.846 240.315 110.703C238.599 108.976 237.227 106.999 236.261 104.85C234.934 101.885 234.368 98.9084 234.517 95.6766C234.623 93.35 235.028 91.462 235.883 89.2908C238.754 82.0221 245.507 77.1412 253.336 76.6914C254.436 76.6248 254.708 76.6248 255.752 76.6858Z" fill="white"/>
<path d="M364.193 42.5024C362.972 42.7356 362.055 43.2187 361.211 44.0738C360.484 44.8068 359.967 45.7119 359.684 46.7392L359.534 47.2834L359.518 72.4379C359.507 90.2126 359.518 97.8756 359.562 98.5641C359.829 102.823 360.884 106.766 362.766 110.531C363.027 111.047 363.305 111.586 363.382 111.724C364.449 113.601 365.554 115.201 366.881 116.778C367.664 117.705 369.907 119.943 370.807 120.687C374.277 123.569 378.17 125.634 382.434 126.862C387.654 128.361 393.585 128.439 398.849 127.078C403.08 125.984 407.156 123.957 410.554 121.264C412.614 119.626 414.647 117.544 416.201 115.473C418.633 112.235 420.571 108.159 421.554 104.2C422.637 99.8357 422.737 94.766 421.832 90.2904C420.927 85.8092 418.939 81.3947 416.146 77.6576C415.224 76.4248 414.447 75.5364 413.236 74.3203C410.782 71.8659 408.244 70.0557 405.179 68.5731C395.7 64.0031 384.567 64.7305 375.776 70.4944C374.349 71.4273 373.006 72.499 371.545 73.8705L370.834 74.5313V61.1045C370.834 46.6282 370.846 47.2334 370.551 46.2783C370.412 45.823 370.035 45.0567 369.757 44.6736C369.468 44.2737 368.802 43.613 368.424 43.3575C367.958 43.0355 367.264 42.7245 366.72 42.5857C366.12 42.4357 364.771 42.3913 364.193 42.5024ZM392.185 76.6858C396.5 76.9357 400.376 78.3961 403.68 81.0226C404.579 81.7334 406.017 83.166 406.717 84.0434C409.116 87.0586 410.515 90.4181 410.993 94.3162C411.087 95.1269 411.093 98.1088 410.993 98.8973C410.41 103.589 408.5 107.554 405.262 110.78C400.259 115.778 392.957 117.76 386.022 116.022C384.172 115.556 381.957 114.601 380.247 113.524C375.549 110.575 372.2 105.622 371.229 100.197C370.934 98.5364 370.834 96.2486 370.995 94.7049C371.651 88.4301 374.994 83.0272 380.319 79.6677C381.129 79.1569 382.801 78.3239 383.728 77.9741C385.644 77.2467 387.671 76.8135 389.731 76.6914C390.797 76.6247 391.136 76.6247 392.185 76.6858Z" fill="white"/>
<path d="M433.288 42.5081C430.873 42.9634 429.046 44.9347 428.696 47.4501C428.651 47.7722 428.64 54.9965 428.651 73.3265C428.674 101.38 428.646 99.0918 429.007 101.452C429.862 107.055 432.305 112.369 436.048 116.811C436.82 117.722 438.897 119.798 439.802 120.559C444.277 124.341 449.697 126.823 455.35 127.683C457.165 127.961 458.009 128.017 460.181 128.017C462.357 128.017 463.201 127.961 465.012 127.683C470.787 126.801 476.228 124.274 480.782 120.365C481.626 119.643 483.436 117.816 484.169 116.944C486.573 114.09 488.461 110.825 489.755 107.282C491.293 103.062 491.865 98.5254 491.465 93.7888C491.132 89.8574 490.127 86.2869 488.306 82.5998C484.486 74.8424 477.872 69.2063 469.809 66.8296C464.69 65.3193 459.309 65.1971 454.145 66.4687C451.874 67.0295 449.997 67.7236 447.864 68.7953C445.216 70.1225 443.006 71.6939 440.523 74.015L439.968 74.5315V61.0769C439.968 46.1896 439.99 47.1225 439.607 46.0564C438.996 44.335 437.625 43.0523 435.926 42.608C435.237 42.4303 433.966 42.3804 433.288 42.5081ZM461.319 76.686C464.251 76.8526 466.816 77.53 469.348 78.8016C472.874 80.5674 475.79 83.355 477.733 86.8255C478.96 89.0133 479.743 91.4066 480.099 94.0387C480.238 95.0771 480.238 98.1756 480.099 99.1973C479.582 102.973 478.172 106.299 475.867 109.17C474.024 111.458 471.786 113.235 469.037 114.584C466.489 115.834 464.062 116.461 461.186 116.611C456.149 116.872 451.291 115.267 447.298 112.013C446.498 111.358 445.166 110.009 444.483 109.159C441.795 105.811 440.263 101.774 440.085 97.5759C439.957 94.6217 440.396 91.9508 441.44 89.3076C444.361 81.9112 451.291 76.9969 459.264 76.6693C460.142 76.6304 460.414 76.636 461.319 76.686Z" fill="white"/>
<path d="M101.548 42.8746C97.5386 43.0356 93.3406 43.4687 89.4703 44.124C88.2653 44.3239 85.0224 44.968 84.978 45.0069C84.9391 45.0513 84.9558 45.0568 86.0664 45.3289C96.1282 47.8277 104.952 52.6309 111.515 59.1944C116.74 64.4141 120.228 70.3668 122.116 77.2746L122.382 78.2574L123.515 78.685C125.886 79.579 127.419 80.2509 129.867 81.4614C134.61 83.8103 139.318 86.7533 144.333 90.5015L145.36 91.2678L156.56 87.5474L167.766 83.827V76.9636C167.766 73.1932 167.782 68.7454 167.805 67.0795L167.838 64.0532L166.983 63.3813C157.032 55.5629 145.082 49.749 131.755 46.234C124.448 44.3072 116.835 43.18 109.044 42.869C107.45 42.8079 103.186 42.8079 101.548 42.8746Z" fill="white"/>
<path d="M503.909 65.0861C503.382 65.1417 502.638 65.3471 502.132 65.5748C500.616 66.2633 499.4 67.7571 498.978 69.4562L498.862 69.9393L498.839 83.0163C498.823 96.2599 498.834 97.4649 499.028 99.1863C499.572 104.123 501.299 108.865 504.076 113.057C505.903 115.823 508.196 118.299 510.822 120.359C518.735 126.556 529.325 128.478 538.67 125.407C542.635 124.102 546.333 121.892 549.343 119.032L549.915 118.488L549.931 130.199C549.948 141.86 549.948 141.904 550.065 142.404C550.476 144.17 551.597 145.597 553.146 146.313C553.957 146.691 554.457 146.791 555.579 146.791C556.412 146.785 556.623 146.769 557.045 146.658C558.949 146.164 560.504 144.753 561.109 142.971C561.431 142.032 561.409 144.709 561.409 105.977C561.409 68.0902 561.42 69.8894 561.165 69.0786C560.698 67.5683 559.643 66.3577 558.161 65.6359C557.494 65.3082 556.978 65.1583 556.217 65.0806C554.962 64.9418 553.574 65.286 552.486 66.0024C551.969 66.3466 551.214 67.1129 550.853 67.6571C550.487 68.2179 550.231 68.8177 550.065 69.5506C549.948 70.0504 549.948 70.1004 549.915 83.9326L549.881 97.8147L549.759 98.5921C549.159 102.251 547.738 105.344 545.311 108.254C544.784 108.887 543.429 110.236 542.779 110.786C539.692 113.374 536.188 114.901 532.284 115.367C530.68 115.556 528.364 115.473 526.648 115.162C521.817 114.29 517.314 111.464 514.226 107.349C512.388 104.911 511.095 101.879 510.634 98.9531C510.412 97.5482 510.412 97.7203 510.378 83.5439L510.351 69.7728L510.228 69.3452C509.928 68.2957 509.468 67.4961 508.746 66.7686C507.78 65.8025 506.602 65.2361 505.253 65.0861C504.664 65.0195 504.553 65.0195 503.909 65.0861Z" fill="white"/>
<path d="M320.387 65.1975C317.26 65.4363 314.228 66.1248 311.419 67.2465C308.081 68.5792 305.288 70.2506 302.534 72.5717C301.618 73.338 299.602 75.3592 298.814 76.2977C294.854 81.0009 292.361 86.6038 291.6 92.5176C291.412 93.9835 291.351 94.9831 291.351 96.6767C291.356 99.3365 291.606 101.541 292.184 103.951C293.327 108.732 295.554 113.102 298.803 116.945C299.502 117.772 301.49 119.766 302.34 120.493C305.105 122.858 307.948 124.585 311.285 125.929C314.24 127.123 317.394 127.828 320.77 128.056C322.008 128.139 324.834 128.089 325.995 127.967C329.971 127.551 333.358 126.562 336.906 124.796C340.021 123.242 342.676 121.337 345.125 118.888C347.501 116.506 349.35 113.957 350.866 110.948C352.771 107.177 353.726 103.879 354.159 99.6197C354.292 98.2815 354.292 94.9942 354.159 93.6781C353.754 89.7189 352.915 86.6649 351.272 83.1555C348.595 77.4527 344.325 72.7272 338.95 69.5343C334.68 66.9966 330.082 65.5584 325.079 65.1919C324.201 65.1253 321.269 65.1309 320.387 65.1975ZM323.968 76.6864C325.878 76.803 327.461 77.0973 329.166 77.6581C336.118 79.9459 341.321 85.943 342.57 93.1117C342.803 94.4333 342.859 95.3273 342.831 97.0376C342.798 98.9922 342.676 99.964 342.254 101.647C341.049 106.483 337.839 110.886 333.502 113.646C328.144 117.061 321.219 117.667 315.278 115.24C309.098 112.724 304.389 107.016 303.123 100.514C302.834 99.0533 302.789 98.4925 302.789 96.6212C302.789 94.7554 302.828 94.2723 303.123 92.7841C304.006 88.2419 306.621 83.9662 310.319 81.012C313.334 78.6077 317.138 77.0751 320.914 76.7419C322.241 76.6308 322.819 76.6197 323.968 76.6864Z" fill="white"/>
<path d="M38.2178 95.8992V113.668H51.9222C60.6347 113.668 65.9488 113.646 66.5096 113.613C71.9403 113.263 76.2327 111.503 79.4478 108.31C80.2974 107.466 80.7416 106.922 81.4246 105.9C82.6574 104.051 83.4792 101.83 83.8623 99.3031C84.1844 97.1597 84.1622 94.25 83.8068 92.151C83.3015 89.1747 82.1409 86.5482 80.4307 84.5158C77.5321 81.062 73.2341 78.913 68.0644 78.33C66.4485 78.1467 65.3435 78.13 51.8112 78.13H38.2178V95.8992Z" fill="white"/>
<path d="M117.114 110.719C116.386 111.786 115.054 113.418 113.91 114.64C110.312 118.482 105.386 121.77 100.178 123.802C99.8777 123.919 99.6445 124.024 99.6556 124.035C99.6667 124.046 100.144 124.18 100.722 124.329C111.639 127.156 120.723 133.375 126.548 141.993C128.242 144.497 129.93 147.835 130.935 150.65C132.268 154.398 132.978 157.897 133.234 161.922C133.317 163.283 133.267 167.003 133.151 168.308C132.556 174.666 131.068 180.008 128.403 185.355C125.599 190.969 121.75 195.911 116.892 200.143C109.767 206.34 100.877 210.627 90.6933 212.787C89.7604 212.981 89.4883 213.059 89.6105 213.081C89.9492 213.153 92.6423 213.514 93.8307 213.647C98.1786 214.13 101.499 214.308 106.186 214.308C109.501 214.308 110.995 214.264 113.627 214.086C130.241 212.981 145.295 208.317 156.434 200.831C162.059 197.05 166.695 192.519 170.094 187.471C173.353 182.629 175.519 177.343 176.618 171.518C177.501 166.848 177.662 161.589 177.063 156.814C175.902 147.529 171.904 139.383 165.129 132.498C164.491 131.848 163.614 130.993 163.186 130.604C153.169 121.453 138.176 114.762 118.719 110.753L117.292 110.458L117.114 110.719Z" fill="white"/>
<path d="M284.017 124.28C282.39 124.418 280.813 125.39 279.819 126.867C279.258 127.7 278.963 128.555 278.875 129.66C278.791 130.715 278.841 176.382 278.93 177.304C279.324 181.424 280.13 184.506 281.69 187.882C283.356 191.475 285.582 194.551 288.631 197.466C293.001 201.642 298.937 204.563 305.051 205.54C308.349 206.062 312.131 206.095 315.39 205.618C321.16 204.779 326.068 202.503 330.266 198.71C331.344 197.738 332.016 196.75 332.454 195.517C333.376 192.891 332.626 190.325 330.522 188.915C329.628 188.315 328.75 188.06 327.634 188.065C326.085 188.071 324.886 188.615 323.248 190.07C320.477 192.53 317.323 193.94 313.502 194.429C310.265 194.845 307 194.573 304.14 193.651C301.053 192.658 298.46 191.069 296.172 188.771C293.418 185.994 291.591 182.546 290.874 178.775C290.558 177.093 290.574 177.876 290.558 165.437L290.536 153.982L301.575 153.971L312.614 153.954L313.147 153.804C314.241 153.504 315.057 153.016 315.851 152.177C316.534 151.461 316.945 150.717 317.167 149.812C317.295 149.306 317.334 148.212 317.256 147.646C316.928 145.414 315.318 143.565 313.114 142.893L312.614 142.737L301.58 142.721L290.541 142.709V136.307C290.541 132.342 290.519 129.721 290.486 129.41C290.225 127.1 288.698 125.29 286.399 124.552C285.577 124.291 284.877 124.207 284.017 124.28Z" fill="white"/>
<path d="M240.036 142.993C234.045 143.282 228.642 146.525 225.593 151.661C224.238 153.943 223.5 156.12 223.172 158.758C223.067 159.618 223.083 162.095 223.205 163.006C223.672 166.571 225.01 169.763 227.159 172.445C227.798 173.24 229.269 174.711 230.041 175.327C232.406 177.21 235.027 178.443 237.793 178.965C239.225 179.237 239.57 179.248 246.522 179.248C250.72 179.248 253.252 179.27 253.646 179.309C255.351 179.475 256.9 180.003 258.277 180.897C259.604 181.763 260.46 183.013 260.837 184.634C260.982 185.25 261.037 186.639 260.948 187.327C260.665 189.476 259.616 191.12 257.7 192.43C256.806 193.041 255.717 193.463 254.362 193.73C253.968 193.807 252.325 193.818 240.036 193.846L226.154 193.88L225.71 194.007C224.56 194.329 223.561 195.035 222.906 195.99C221.784 197.622 221.662 200.426 222.628 202.348C223.394 203.869 224.721 204.874 226.293 205.124C226.798 205.202 254.79 205.202 255.667 205.124C258.821 204.835 261.698 203.814 264.274 202.064C265.413 201.293 266.207 200.604 267.395 199.366C270.199 196.439 271.887 192.636 272.27 188.371C272.359 187.383 272.315 184.884 272.193 183.995C271.793 181.175 270.855 178.565 269.372 176.199C268.678 175.083 267.839 174.045 266.745 172.945C264.341 170.53 261.143 168.819 257.75 168.148C256.189 167.837 256.528 167.848 248.116 167.809C239.609 167.77 240.103 167.787 239.087 167.448C237.515 166.92 235.921 165.582 235.211 164.194C234.467 162.733 234.3 160.718 234.789 159.124C235.411 157.114 237.138 155.332 239.092 154.687C240.003 154.382 239.109 154.404 252.363 154.371L264.58 154.343L265.024 154.215C266.956 153.671 268.495 152.028 268.972 149.99C269.183 149.085 269.172 147.785 268.933 146.852C268.678 145.836 268.028 144.837 267.201 144.181C266.307 143.471 265.268 143.087 263.969 142.987C263.169 142.926 241.335 142.926 240.036 142.993Z" fill="white"/>
<path d="M367.476 142.999C360.329 143.232 353.549 145.842 348.068 150.478C346.614 151.706 344.687 153.71 343.532 155.187C341.499 157.797 339.767 161.04 338.74 164.15C337.396 168.198 336.974 172.645 337.518 176.971C338.134 181.908 340.083 186.716 343.11 190.776C343.982 191.942 344.726 192.791 345.986 194.052C348.091 196.162 350.023 197.678 352.344 199.055C357.364 202.026 362.845 203.514 368.742 203.514C373.995 203.514 378.726 202.398 383.396 200.065C389.137 197.195 393.874 192.608 396.762 187.133C398.622 183.607 399.632 180.336 400.077 176.416C400.199 175.327 400.243 172.384 400.16 171.163C399.91 167.642 399.121 164.477 397.678 161.273C394.39 153.954 388.454 148.302 380.886 145.275C376.582 143.554 372.346 142.838 367.476 142.999ZM370.03 154.093C375.844 154.454 380.941 157.014 384.573 161.39C386.111 163.244 387.416 165.727 388.105 168.103C389.698 173.628 388.604 179.736 385.195 184.345C383.64 186.45 381.608 188.31 379.414 189.637C378.576 190.148 376.949 190.937 376.077 191.259C371.779 192.858 366.782 192.974 362.478 191.592C359.99 190.792 357.669 189.521 355.709 187.877C354.865 187.172 353.516 185.795 352.877 184.995C350.856 182.457 349.545 179.614 348.99 176.582C348.774 175.377 348.713 174.644 348.713 173.223C348.718 171.124 348.957 169.575 349.579 167.642C352.316 159.141 360.801 153.516 370.03 154.093Z" fill="white"/>
<path d="M439.441 142.971C435.693 143.059 432.022 143.776 428.674 145.075C423.371 147.135 418.734 150.439 415.203 154.676C411.305 159.346 408.706 165.065 407.823 170.918C407.434 173.5 407.418 174.155 407.44 188.16L407.457 200.321L407.607 200.859C407.901 201.931 408.434 202.803 409.278 203.608C410.494 204.763 411.804 205.235 413.587 205.163C414.492 205.129 415.02 205.002 415.73 204.657C416.336 204.369 416.791 204.03 417.268 203.519C417.735 203.03 417.924 202.747 418.229 202.114C418.518 201.509 418.679 200.92 418.757 200.182C418.79 199.849 418.812 195.029 418.812 187.216C418.812 174.75 418.823 174.189 419.012 172.862C419.534 169.236 421.083 165.626 423.382 162.672C426.897 158.158 432.067 155.181 437.664 154.454C438.031 154.404 439.019 154.343 439.858 154.315C441.462 154.265 441.968 154.198 442.684 153.954C444.333 153.393 445.699 152.016 446.204 150.4C446.632 149.045 446.521 147.268 445.943 146.008C445.26 144.531 444.017 143.554 442.323 143.148C441.884 143.048 440.613 142.921 440.218 142.943C440.13 142.948 439.78 142.959 439.441 142.971Z" fill="white"/>
<path d="M478.366 142.993C473.779 143.159 469.526 144.27 465.289 146.402C461.441 148.346 458.015 151.089 455.166 154.504C451.34 159.096 448.891 164.832 448.219 170.779C448.053 172.245 448.003 173.367 448.036 175.111C448.075 177.304 448.242 178.881 448.636 180.802C449.674 185.867 451.912 190.498 455.266 194.546C456.021 195.456 458.376 197.811 459.292 198.572C464.095 202.564 469.903 205.068 475.978 205.757C477.433 205.924 478.61 205.973 480.476 205.94C482.364 205.907 483.036 205.862 484.752 205.674C491.237 204.963 496.207 202.797 497.884 199.954C498.356 199.16 498.567 198.355 498.562 197.35C498.562 196.356 498.373 195.606 497.873 194.601C497.14 193.13 495.824 192.047 494.264 191.619C493.597 191.436 492.354 191.436 491.643 191.625C490.932 191.808 490.199 192.119 489.366 192.597C486.49 194.224 484.468 194.79 480.909 194.968C477.838 195.118 475.123 194.696 472.485 193.646C469.059 192.291 466.172 190.003 463.823 186.783C462.907 185.522 462.163 184.151 461.546 182.59C461.241 181.819 460.774 180.308 460.702 179.858L460.663 179.636L482.12 179.62L503.576 179.608L504.115 179.481C505.875 179.075 507.169 178.359 508.335 177.149C510.328 175.072 511.2 171.879 510.656 168.669C510.373 166.992 509.601 164.41 508.851 162.617C505.419 154.398 499.228 148.324 490.971 145.081C487.883 143.87 484.391 143.126 481.248 143.015C480.792 142.998 480.209 142.976 479.948 142.971C479.687 142.96 478.977 142.971 478.366 142.993ZM481.742 153.954C487.872 154.548 493.275 157.725 496.568 162.661C497.379 163.877 497.801 164.816 498.029 165.865C498.151 166.443 498.167 167.487 498.056 167.92C497.801 168.969 497.135 169.63 496.024 169.958C495.707 170.052 494.747 170.058 478.022 170.074C461.674 170.085 460.347 170.08 460.347 169.996C460.347 169.946 460.413 169.613 460.491 169.258C462.018 162.445 466.86 157.019 473.318 154.893C474.895 154.376 476.611 154.032 478.283 153.91C478.988 153.854 481.009 153.882 481.742 153.954Z" fill="white"/>
<path d="M38.2178 164.726V184.467H54.7875C65.3824 184.467 71.7127 184.445 72.3457 184.411C77.8986 184.095 82.3908 182.24 85.928 178.814C88.4323 176.382 90.0649 173.6 90.9089 170.307C91.8751 166.542 91.7752 161.85 90.6646 158.174C90.3314 157.086 90.1038 156.514 89.554 155.398C88.6156 153.493 87.5161 151.999 85.978 150.533C82.7962 147.49 78.8592 145.736 73.9616 145.18C72.4512 145.008 70.2967 144.986 54.31 144.986H38.2178V164.726Z" fill="white"/>
</svg>
