<svg width="450" height="196" viewBox="0 0 450 196" fill="none" xmlns="http://www.w3.org/2000/svg">
<path d="M173.311 32.3849C171.666 32.6979 170.371 33.9248 169.906 35.617L169.792 36.0231L169.779 55.1451C169.766 74.5716 169.77 75.0116 169.923 76.3399C170.452 80.9808 172.279 85.224 175.329 88.8834C175.964 89.6491 177.559 91.2483 178.316 91.8871C182.851 95.703 188.452 97.6787 194.35 97.5433C198.618 97.4418 202.515 96.3122 206.195 94.0954C207.866 93.0928 209.296 91.9675 210.747 90.5164C212 89.2599 212.85 88.2192 213.793 86.7893C215.731 83.8449 216.987 80.5493 217.486 77.1014C217.8 74.9312 217.8 72.3083 217.486 70.1211C216.839 65.6325 214.872 61.3385 211.856 57.8314C209.042 54.5612 205.286 52.1372 201.136 50.9145C197.235 49.7638 193.136 49.6708 189.197 50.6396C185.347 51.5914 181.997 53.4232 179.014 56.2111L178.422 56.7653L178.401 46.354C178.38 36.8481 178.371 35.9131 178.308 35.6593C177.893 34.0179 176.802 32.8502 175.321 32.461C174.796 32.3257 173.828 32.2876 173.311 32.3849ZM194.667 58.4237C195.784 58.4872 196.63 58.6141 197.671 58.8721C202.773 60.1455 206.851 64.0122 208.412 69.0508C208.734 70.0915 208.932 71.1237 209.034 72.2956C209.097 73.0317 209.064 74.8931 208.97 75.5996C208.818 76.7715 208.509 77.9941 208.091 79.1025C207.832 79.7836 207.177 81.1077 206.788 81.7254C204.803 84.8898 201.618 87.2631 197.975 88.2911C194.963 89.1457 191.528 89.0315 188.639 87.9823C186.443 87.187 184.531 85.9728 182.906 84.3398C181.599 83.0242 180.554 81.5181 179.818 79.8809C178.807 77.6218 178.375 75.3542 178.49 72.8921C178.57 71.1195 178.879 69.6811 179.53 68.027C181.717 62.4892 186.862 58.7706 192.827 58.4279C193.664 58.3772 193.872 58.3772 194.667 58.4237Z" fill="white"/>
<path d="M277.285 32.3806C276.354 32.5583 275.656 32.9263 275.013 33.5778C274.459 34.1362 274.065 34.8258 273.85 35.6085L273.735 36.023L273.723 55.1873C273.714 68.7292 273.723 74.5673 273.757 75.0919C273.96 78.3367 274.763 81.3403 276.198 84.2086C276.396 84.6021 276.608 85.0124 276.667 85.1182C277.479 86.5481 278.321 87.7665 279.332 88.968C279.929 89.6744 281.638 91.3793 282.323 91.9462C284.967 94.1419 287.933 95.7156 291.182 96.6506C295.159 97.7928 299.677 97.852 303.688 96.8156C306.911 95.9821 310.016 94.438 312.605 92.3862C314.175 91.1382 315.723 89.5518 316.908 87.9738C318.761 85.5074 320.237 82.4022 320.986 79.3858C321.811 76.0606 321.887 72.1982 321.198 68.7884C320.508 65.3744 318.994 62.0111 316.866 59.164C316.163 58.2248 315.571 57.5479 314.649 56.6214C312.779 54.7515 310.846 53.3724 308.51 52.2428C301.289 48.7611 292.807 49.3153 286.11 53.7066C285.022 54.4173 283.999 55.2338 282.886 56.2788L282.345 56.7822V46.5528C282.345 35.5238 282.353 35.985 282.129 35.2573C282.023 34.9104 281.735 34.3266 281.524 34.0347C281.304 33.7301 280.796 33.2267 280.509 33.0321C280.153 32.7867 279.624 32.5498 279.21 32.444C278.753 32.3298 277.725 32.296 277.285 32.3806ZM298.611 58.4236C301.898 58.614 304.851 59.7266 307.368 61.7277C308.053 62.2692 309.149 63.3606 309.682 64.0291C311.51 66.3262 312.576 68.8857 312.94 71.8555C313.012 72.4732 313.016 74.745 312.94 75.3457C312.495 78.9205 311.04 81.9411 308.574 84.399C304.762 88.2065 299.199 89.7168 293.915 88.3926C292.506 88.0372 290.818 87.3096 289.515 86.4889C285.936 84.2425 283.385 80.4688 282.645 76.3356C282.421 75.0707 282.345 73.3277 282.467 72.1517C282.966 67.3712 285.513 63.2549 289.57 60.6954C290.188 60.3062 291.461 59.6716 292.168 59.4051C293.627 58.8509 295.171 58.5209 296.741 58.4279C297.553 58.3771 297.811 58.3771 298.611 58.4236Z" fill="white"/>
<path d="M329.925 32.385C328.085 32.7319 326.693 34.2338 326.427 36.1502C326.393 36.3956 326.384 41.8995 326.393 55.8644C326.41 77.237 326.388 75.494 326.663 77.292C327.315 81.5606 329.176 85.6092 332.028 88.9936C332.616 89.6874 334.198 91.2696 334.888 91.8492C338.297 94.7302 342.426 96.6212 346.733 97.2769C348.116 97.4885 348.759 97.5308 350.414 97.5308C352.072 97.5308 352.715 97.4885 354.094 97.2769C358.494 96.6043 362.64 94.6794 366.109 91.7011C366.752 91.1511 368.131 89.7593 368.689 89.0951C370.521 86.9206 371.96 84.4331 372.945 81.734C374.117 78.5188 374.553 75.0625 374.248 71.4539C373.994 68.4587 373.229 65.7384 371.841 62.9294C368.931 57.0193 363.892 52.7254 357.749 50.9147C353.849 49.764 349.749 49.6709 345.815 50.6397C344.085 51.067 342.655 51.5958 341.03 52.4123C339.012 53.4234 337.329 54.6206 335.438 56.389L335.014 56.7824V46.5319C335.014 35.1899 335.031 35.9006 334.74 35.0883C334.274 33.7769 333.229 32.7996 331.935 32.4612C331.41 32.3258 330.441 32.2877 329.925 32.385ZM351.281 58.4239C353.515 58.5508 355.469 59.0669 357.398 60.0357C360.085 61.381 362.306 63.5047 363.786 66.1488C364.721 67.8156 365.318 69.639 365.588 71.6442C365.694 72.4353 365.694 74.796 365.588 75.5744C365.195 78.4511 364.12 80.9852 362.365 83.1724C360.96 84.9154 359.255 86.2691 357.161 87.2971C355.219 88.249 353.371 88.7271 351.179 88.8413C347.342 89.0401 343.641 87.8175 340.599 85.3384C339.99 84.8392 338.974 83.8112 338.454 83.1639C336.406 80.6129 335.239 77.5373 335.103 74.3391C335.006 72.0884 335.34 70.0536 336.136 68.0398C338.361 62.4048 343.641 58.6608 349.716 58.4112C350.384 58.3816 350.591 58.3858 351.281 58.4239Z" fill="white"/>
<path d="M77.1854 32.6642C74.1309 32.7869 70.9327 33.1169 67.984 33.6161C67.066 33.7684 64.5954 34.2592 64.5615 34.2888C64.5319 34.3226 64.5446 34.3268 65.3907 34.5341C73.0564 36.4379 79.7787 40.0973 84.7792 45.0977C88.7601 49.0744 91.4168 53.6095 92.8552 58.8723L93.0583 59.6211L93.9213 59.9469C95.7277 60.628 96.8954 61.1399 98.761 62.0621C102.374 63.8516 105.961 66.0938 109.782 68.9494L110.564 69.5332L119.097 66.6988L127.634 63.8643V58.6354C127.634 55.7629 127.647 52.3742 127.664 51.1051L127.689 48.7994L127.038 48.2875C119.457 42.331 110.353 37.9016 100.199 35.2237C94.632 33.7557 88.832 32.8969 82.8966 32.66C81.6824 32.6135 78.4334 32.6135 77.1854 32.6642Z" fill="white"/>
<path d="M383.729 49.5867C383.327 49.629 382.76 49.7855 382.375 49.9589C381.22 50.4835 380.294 51.6215 379.972 52.9161L379.883 53.2841L379.866 63.247C379.854 73.3368 379.862 74.2548 380.01 75.5663C380.425 79.3272 381.741 82.94 383.856 86.1341C385.248 88.2409 386.995 90.1277 388.996 91.6972C395.024 96.4185 403.092 97.8822 410.212 95.5428C413.233 94.5486 416.05 92.8648 418.343 90.6861L418.779 90.2715L418.791 99.1937C418.804 108.078 418.804 108.112 418.893 108.492C419.206 109.838 420.061 110.925 421.241 111.471C421.859 111.758 422.239 111.834 423.094 111.834C423.728 111.83 423.889 111.818 424.211 111.733C425.662 111.356 426.846 110.282 427.307 108.924C427.553 108.209 427.536 110.248 427.536 80.7402C427.536 51.8754 427.544 53.246 427.35 52.6284C426.994 51.4777 426.191 50.5554 425.061 50.0055C424.553 49.7559 424.16 49.6417 423.58 49.5824C422.624 49.4767 421.567 49.739 420.737 50.2847C420.344 50.547 419.769 51.1308 419.494 51.5454C419.214 51.9727 419.02 52.4296 418.893 52.988C418.804 53.3687 418.804 53.4068 418.779 63.945L418.753 74.5213L418.66 75.1136C418.203 77.9015 417.12 80.2579 415.272 82.4747C414.87 82.957 413.837 83.985 413.343 84.4038C410.99 86.3752 408.321 87.5386 405.347 87.894C404.124 88.0378 402.36 87.9744 401.053 87.7375C397.372 87.0733 393.941 84.9199 391.589 81.7851C390.189 79.9279 389.203 77.6181 388.852 75.3886C388.683 74.3183 388.683 74.4494 388.657 63.6489L388.636 53.1572L388.543 52.8315C388.315 52.0319 387.964 51.4227 387.414 50.8685C386.678 50.1324 385.781 49.7009 384.753 49.5867C384.304 49.5359 384.22 49.5359 383.729 49.5867Z" fill="white"/>
<path d="M243.909 49.6715C241.528 49.8534 239.218 50.378 237.077 51.2326C234.535 52.2479 232.407 53.5213 230.308 55.2896C229.61 55.8734 228.075 57.4133 227.474 58.1283C224.458 61.7115 222.558 65.9801 221.978 70.4856C221.835 71.6025 221.788 72.364 221.788 73.6543C221.792 75.6807 221.983 77.3602 222.423 79.1963C223.294 82.8387 224.991 86.1682 227.465 89.0957C227.998 89.726 229.513 91.2448 230.16 91.799C232.267 93.6012 234.433 94.9169 236.976 95.9407C239.226 96.8502 241.629 97.3875 244.201 97.5609C245.145 97.6244 247.298 97.5863 248.182 97.4933C251.211 97.176 253.792 96.4229 256.495 95.0776C258.869 93.8931 260.891 92.442 262.756 90.5764C264.567 88.7615 265.976 86.8197 267.131 84.5267C268.582 81.6542 269.309 79.1413 269.639 75.8965C269.741 74.8769 269.741 72.3724 269.639 71.3698C269.331 68.3535 268.692 66.0267 267.44 63.353C265.4 59.0082 262.147 55.4081 258.052 52.9755C254.799 51.0422 251.296 49.9465 247.484 49.6673C246.816 49.6165 244.582 49.6207 243.909 49.6715ZM246.638 58.4244C248.093 58.5133 249.299 58.7375 250.598 59.1648C255.895 60.9077 259.859 65.4767 260.81 70.9383C260.988 71.9452 261.03 72.6263 261.009 73.9293C260.984 75.4184 260.891 76.1588 260.569 77.4406C259.651 81.1254 257.206 84.4802 253.902 86.5828C249.819 89.1845 244.544 89.6456 240.017 87.7969C235.309 85.8805 231.721 81.5315 230.757 76.5776C230.537 75.465 230.503 75.0377 230.503 73.612C230.503 72.1905 230.533 71.8225 230.757 70.6887C231.429 67.2281 233.422 63.9706 236.24 61.72C238.537 59.8882 241.435 58.7206 244.311 58.4667C245.322 58.3821 245.762 58.3737 246.638 58.4244Z" fill="white"/>
<path d="M28.9365 73.062V86.5996H39.3774C46.0151 86.5996 50.0637 86.5827 50.491 86.5573C54.6284 86.2908 57.8986 84.9497 60.3481 82.5172C60.9954 81.8741 61.3338 81.4595 61.8542 80.6811C62.7933 79.2724 63.4195 77.5801 63.7114 75.6553C63.9567 74.0223 63.9398 71.8055 63.6691 70.2064C63.2841 67.9388 62.3999 65.9378 61.0969 64.3894C58.8886 61.758 55.6142 60.1208 51.6755 59.6766C50.4445 59.537 49.6026 59.5243 39.2928 59.5243H28.9365V73.062Z" fill="white"/>
<path d="M89.044 84.3527C88.4898 85.1649 87.4745 86.4087 86.603 87.3394C83.8616 90.2669 80.1092 92.7714 76.1409 94.3198C75.9125 94.4086 75.7348 94.489 75.7433 94.4974C75.7517 94.5059 76.1156 94.6074 76.5555 94.7217C84.8727 96.875 91.7938 101.613 96.2317 108.179C97.522 110.087 98.808 112.629 99.5738 114.774C100.589 117.63 101.131 120.295 101.325 123.362C101.389 124.399 101.351 127.233 101.262 128.227C100.809 133.071 99.6753 137.141 97.6446 141.215C95.5082 145.492 92.5765 149.257 88.8748 152.481C83.447 157.202 76.674 160.468 68.9152 162.114C68.2045 162.262 67.9972 162.321 68.0903 162.338C68.3483 162.393 70.4001 162.668 71.3055 162.77C74.6179 163.138 77.1478 163.273 80.7184 163.273C83.244 163.273 84.382 163.239 86.3872 163.104C99.0449 162.262 110.514 158.708 119 153.005C123.286 150.125 126.818 146.672 129.407 142.827C131.891 139.138 133.541 135.11 134.378 130.673C135.051 127.115 135.174 123.108 134.717 119.47C133.832 112.397 130.787 106.191 125.625 100.945C125.139 100.45 124.47 99.7983 124.145 99.5021C116.513 92.5303 105.09 87.4325 90.2666 84.378L89.1794 84.1538L89.044 84.3527Z" fill="white"/>
<path d="M216.201 94.6838C214.961 94.7895 213.76 95.5299 213.003 96.6552C212.575 97.2898 212.351 97.9413 212.283 98.7831C212.22 99.5869 212.258 134.379 212.326 135.081C212.626 138.22 213.239 140.568 214.428 143.14C215.697 145.877 217.394 148.221 219.716 150.442C223.046 153.623 227.568 155.849 232.226 156.593C234.739 156.991 237.62 157.016 240.103 156.652C244.499 156.014 248.239 154.279 251.437 151.39C252.258 150.649 252.769 149.896 253.104 148.957C253.806 146.956 253.235 145.002 251.631 143.927C250.95 143.47 250.282 143.275 249.432 143.28C248.251 143.284 247.337 143.699 246.089 144.807C243.978 146.681 241.575 147.756 238.665 148.128C236.198 148.445 233.711 148.238 231.532 147.536C229.18 146.778 227.204 145.568 225.461 143.817C223.363 141.702 221.971 139.075 221.426 136.202C221.184 134.92 221.197 135.517 221.184 126.04L221.167 117.313L229.578 117.304L237.988 117.292L238.394 117.177C239.228 116.949 239.849 116.577 240.454 115.938C240.975 115.392 241.288 114.825 241.457 114.136C241.554 113.751 241.584 112.917 241.525 112.486C241.275 110.785 240.048 109.376 238.369 108.864L237.988 108.746L229.582 108.733L221.172 108.725V103.847C221.172 100.826 221.155 98.8297 221.129 98.5928C220.931 96.8329 219.767 95.4537 218.016 94.891C217.39 94.6922 216.857 94.6288 216.201 94.6838Z" fill="white"/>
<path d="M182.694 108.941C178.13 109.161 174.013 111.631 171.691 115.544C170.659 117.283 170.096 118.942 169.846 120.951C169.766 121.607 169.779 123.494 169.872 124.187C170.227 126.903 171.247 129.336 172.884 131.379C173.37 131.984 174.491 133.105 175.079 133.575C176.882 135.009 178.878 135.948 180.985 136.346C182.077 136.553 182.339 136.562 187.636 136.562C190.834 136.562 192.763 136.579 193.063 136.608C194.362 136.735 195.542 137.137 196.592 137.818C197.603 138.478 198.254 139.43 198.542 140.665C198.652 141.135 198.694 142.193 198.627 142.717C198.411 144.354 197.611 145.607 196.152 146.605C195.471 147.07 194.641 147.392 193.609 147.595C193.309 147.654 192.057 147.663 182.694 147.684L172.118 147.709L171.78 147.806C170.904 148.052 170.142 148.589 169.643 149.317C168.789 150.56 168.696 152.697 169.432 154.161C170.016 155.32 171.027 156.086 172.224 156.276C172.609 156.335 193.935 156.335 194.603 156.276C197.006 156.056 199.198 155.277 201.161 153.945C202.028 153.357 202.633 152.832 203.538 151.889C205.675 149.659 206.961 146.761 207.253 143.512C207.32 142.759 207.286 140.856 207.193 140.179C206.889 138.03 206.174 136.041 205.044 134.239C204.515 133.389 203.877 132.598 203.043 131.76C201.211 129.92 198.775 128.617 196.19 128.105C195.001 127.868 195.259 127.876 188.85 127.847C182.369 127.817 182.745 127.83 181.971 127.572C180.774 127.17 179.56 126.15 179.018 125.093C178.451 123.98 178.324 122.444 178.697 121.23C179.17 119.699 180.486 118.341 181.975 117.85C182.669 117.617 181.988 117.634 192.086 117.609L201.393 117.588L201.732 117.491C203.204 117.076 204.376 115.824 204.74 114.271C204.9 113.582 204.892 112.592 204.71 111.881C204.515 111.107 204.02 110.345 203.39 109.846C202.709 109.304 201.918 109.013 200.928 108.936C200.319 108.89 183.684 108.89 182.694 108.941Z" fill="white"/>
<path d="M279.786 108.945C274.341 109.123 269.176 111.111 265 114.644C263.892 115.579 262.424 117.106 261.544 118.231C259.995 120.219 258.675 122.69 257.893 125.059C256.869 128.143 256.547 131.532 256.962 134.827C257.432 138.588 258.917 142.252 261.222 145.345C261.886 146.233 262.453 146.88 263.414 147.841C265.017 149.448 266.489 150.603 268.258 151.652C272.082 153.916 276.257 155.049 280.75 155.049C284.752 155.049 288.357 154.199 291.915 152.422C296.289 150.235 299.898 146.741 302.097 142.569C303.515 139.883 304.285 137.391 304.623 134.404C304.716 133.575 304.75 131.333 304.686 130.402C304.496 127.72 303.895 125.309 302.795 122.868C300.291 117.292 295.769 112.985 290.002 110.68C286.724 109.368 283.496 108.822 279.786 108.945ZM281.732 117.398C286.161 117.673 290.045 119.623 292.811 122.957C293.983 124.37 294.977 126.261 295.502 128.071C296.716 132.281 295.883 136.934 293.285 140.446C292.101 142.049 290.552 143.466 288.881 144.477C288.242 144.866 287.003 145.467 286.339 145.713C283.064 146.931 279.257 147.02 275.978 145.966C274.083 145.357 272.315 144.388 270.821 143.136C270.178 142.599 269.15 141.55 268.664 140.941C267.124 139.007 266.125 136.841 265.702 134.531C265.537 133.613 265.491 133.055 265.491 131.972C265.495 130.373 265.677 129.192 266.151 127.72C268.236 121.243 274.701 116.958 281.732 117.398Z" fill="white"/>
<path d="M334.613 108.924C331.757 108.992 328.961 109.537 326.41 110.527C322.37 112.097 318.837 114.614 316.147 117.842C313.177 121.4 311.197 125.757 310.524 130.216C310.228 132.183 310.215 132.682 310.232 143.352L310.245 152.617L310.359 153.027C310.583 153.843 310.99 154.508 311.633 155.121C312.559 156.001 313.558 156.361 314.916 156.306C315.605 156.28 316.007 156.183 316.549 155.921C317.01 155.701 317.357 155.443 317.72 155.053C318.076 154.681 318.22 154.465 318.452 153.983C318.672 153.522 318.795 153.073 318.854 152.511C318.88 152.257 318.896 148.585 318.896 142.633C318.896 133.135 318.905 132.708 319.049 131.697C319.446 128.934 320.627 126.184 322.378 123.934C325.056 120.494 328.995 118.227 333.259 117.673C333.538 117.634 334.291 117.588 334.93 117.567C336.153 117.529 336.538 117.478 337.083 117.292C338.34 116.864 339.381 115.815 339.766 114.584C340.091 113.552 340.007 112.198 339.567 111.238C339.046 110.113 338.099 109.368 336.808 109.059C336.474 108.983 335.505 108.886 335.205 108.903C335.137 108.907 334.871 108.915 334.613 108.924Z" fill="white"/>
<path d="M364.269 108.941C360.774 109.068 357.534 109.914 354.306 111.538C351.374 113.019 348.764 115.109 346.594 117.711C343.679 121.209 341.813 125.579 341.301 130.11C341.174 131.227 341.136 132.082 341.162 133.41C341.191 135.081 341.318 136.283 341.619 137.746C342.41 141.605 344.115 145.133 346.67 148.217C347.245 148.911 349.039 150.704 349.737 151.284C353.396 154.326 357.821 156.234 362.45 156.758C363.558 156.885 364.455 156.923 365.876 156.898C367.315 156.872 367.827 156.839 369.134 156.695C374.075 156.153 377.861 154.503 379.139 152.337C379.499 151.732 379.659 151.119 379.655 150.353C379.655 149.596 379.511 149.025 379.131 148.259C378.572 147.138 377.57 146.313 376.381 145.987C375.873 145.848 374.925 145.848 374.384 145.992C373.842 146.131 373.284 146.368 372.649 146.732C370.458 147.971 368.918 148.403 366.206 148.538C363.867 148.653 361.798 148.331 359.789 147.531C357.178 146.499 354.979 144.756 353.189 142.303C352.491 141.342 351.924 140.297 351.455 139.109C351.222 138.52 350.867 137.37 350.812 137.027L350.782 136.858L367.129 136.845L383.475 136.837L383.886 136.739C385.227 136.431 386.212 135.885 387.101 134.963C388.62 133.38 389.284 130.948 388.869 128.503C388.654 127.225 388.065 125.258 387.494 123.891C384.88 117.63 380.163 113.002 373.872 110.531C371.52 109.609 368.859 109.042 366.464 108.958C366.118 108.945 365.673 108.928 365.475 108.924C365.276 108.915 364.734 108.924 364.269 108.941ZM366.841 117.292C371.511 117.744 375.628 120.164 378.136 123.925C378.754 124.852 379.076 125.567 379.249 126.366C379.342 126.806 379.355 127.602 379.27 127.932C379.076 128.731 378.568 129.235 377.722 129.484C377.481 129.556 376.749 129.56 364.007 129.573C351.552 129.581 350.541 129.577 350.541 129.514C350.541 129.476 350.592 129.222 350.651 128.951C351.814 123.76 355.503 119.627 360.423 118.007C361.625 117.613 362.932 117.351 364.205 117.258C364.743 117.216 366.283 117.237 366.841 117.292Z" fill="white"/>
<path d="M28.9365 125.499V140.538H41.5604C49.6322 140.538 54.455 140.521 54.9373 140.496C59.1678 140.255 62.5903 138.842 65.2851 136.231C67.1931 134.378 68.4369 132.259 69.0799 129.75C69.816 126.882 69.7399 123.307 68.8938 120.507C68.6399 119.677 68.4665 119.242 68.0476 118.391C67.3327 116.94 66.495 115.802 65.3232 114.685C62.8991 112.367 59.8997 111.03 56.1684 110.607C55.0177 110.476 53.3762 110.459 41.1966 110.459H28.9365V125.499Z" fill="white"/>
</svg>
