<svg width="450" height="142" viewBox="0 0 450 142" fill="none" xmlns="http://www.w3.org/2000/svg">
<g clip-path="url(#clip0_504_110)">
<path d="M315.235 10.9864C315.235 10.9864 306.799 14.3445 296.988 25.1578C287.177 35.971 281.463 48.1304 285.692 51.3641C287.316 52.5932 291.062 52.8273 297.859 46.6818C304.131 41.2358 309.055 34.4089 312.242 26.738C316.632 16.0346 315.235 11.1181 315.235 11.0011M368.928 30.44C358.027 24.8505 350.059 18.0026 341.77 13.7666C333.861 9.70611 328.747 8.00877 322.353 8.86475C321.461 9.02375 320.581 9.24375 319.719 9.5232C319.719 9.5232 323.012 20.7681 309.908 39.6583C296.637 58.8119 284.595 58.6802 281.171 53.4199C277.586 47.867 282.217 36.549 289.95 26.4747C298.049 15.9394 312.271 7.20399 312.271 7.20399C312.271 7.20399 307.736 4.43118 296.6 10.745C285.736 16.8759 267.036 31.5081 249.682 56.1854C232.328 80.8627 228.89 94.4414 226.402 105.13C223.915 115.819 226.175 127.269 238.028 127.269C249.88 127.269 263.678 109.191 267.57 102.906C274.806 91.2004 279.525 73.2466 269.677 75.7121C264.826 76.9266 260.898 82.2966 258.418 87.4691C256.852 90.7914 255.654 94.2751 254.847 97.858C251.406 99.2763 248.174 101.157 245.241 103.448C241.978 105.865 238.928 108.557 236.125 111.495C236.125 111.495 236.169 102.95 242.981 89.1226C249.792 75.2951 262.295 68.9813 269.377 68.3887C275.757 67.8766 284.061 73.2905 277.022 93.2635C269.984 113.237 249.221 137.519 227.412 137.819C207.285 138.097 194.116 112.41 222.13 67.5839C253.135 18.0611 289.504 2.86553 301.312 1.17551C313.12 -0.514514 316.961 4.69456 316.961 4.69456C324.069 1.7784 331.746 0.512651 339.414 0.992606C353.834 1.96565 364.984 12.1716 379.704 19.3414C375.878 22.9995 372.227 26.8405 368.935 30.44M433.712 13.7666C423.718 20.1755 409.891 25.9845 396.604 24.7407C393.239 28.2159 389.64 32.2398 386.033 36.6294C409.071 41.1874 429.256 26.9136 439.989 14.7615C443.902 10.3924 447.263 5.55931 449.997 0.370736C445.111 5.46017 439.643 9.95641 433.704 13.7666M403.028 78.6752C403.203 78.3714 403.345 78.0502 403.452 77.7168C403.384 77.1892 403.137 76.701 402.752 76.3335C402.367 75.9661 401.868 75.7416 401.338 75.6975C399.143 75.5951 396.151 76.0121 388.301 84.7037C381.788 91.8812 376.183 99.8326 371.613 108.379C367.12 116.587 365.299 122.704 367.881 124.284C368.72 124.718 369.693 124.818 370.603 124.562C372.351 124.145 374.334 122.506 377.348 119.016C378.76 117.377 380.326 115.058 382.199 112.49C387.393 105.423 400.445 83.1746 403.028 78.6752ZM321.483 88.1276C322.792 84.7037 324.46 77.9801 320.992 75.339C317.268 72.5369 307.772 79.1141 307.721 85.8596C307.655 92.766 314.408 95.89 316.025 96.329C316.947 96.5777 317.268 96.5411 317.715 95.8022C319.147 93.3344 320.406 90.77 321.483 88.1276ZM314.298 100.689C311.945 99.6027 309.75 98.2024 307.772 96.5265C305.789 94.8632 304.132 92.8464 302.885 90.5785C302.753 90.359 302.622 90.5273 302.475 90.7248C302.329 90.9224 301.744 91.4564 296.681 98.875C291.618 106.294 283.841 121.665 290.879 124.284C295.386 125.959 302.885 118.065 306.975 112.834C309.761 109.183 312.286 105.34 314.532 101.333C314.744 100.887 314.532 100.784 314.305 100.689M394.139 118.446C392.229 121.504 390.049 127.371 396.334 123.721C404.023 119.28 414.975 102.665 414.975 102.665H419.943C415.423 109.615 410.39 116.218 404.886 122.418C397.095 131.051 387.591 138.894 380.897 138.119C373.076 137.204 375.527 126.94 375.527 126.94C375.527 126.94 364.34 138.85 356.6 137.994C346.145 136.838 349.335 123.918 349.335 123.918C349.335 123.918 337.512 138.426 329.457 137.98C316.829 137.248 320.005 121.884 323.516 111.064C325.397 105.277 327.138 100.733 327.138 100.733C327.138 100.733 325.887 101.062 323.194 101.465C321.79 101.662 319.229 101.809 319.229 101.809C319.229 101.809 313.969 111.086 309.762 116.66C305.555 122.235 287.675 141.455 277.154 137.607C267.424 134.051 270.643 119.155 276.305 107.318C284.573 90.0591 307.823 65.2647 321.234 68.5423C335.134 71.9151 321.548 97.2801 321.548 97.2801C321.548 97.2801 321.548 97.3752 321.695 97.441C321.973 97.5434 322.697 97.6239 324.372 97.2947C326.109 96.9406 327.81 96.4338 329.457 95.7803C329.457 95.7803 343.431 66.5158 358.868 47.3695C374.305 28.2232 405.098 -4.75055 417.185 3.22402C420.111 5.18474 418.794 11.9375 414.814 20.1316C413.022 20.7139 411.2 21.2023 409.356 21.5948C412.02 16.7588 413.783 12.6838 414.309 9.8378C416.131 -0.0535995 393.034 20.812 376.529 43.2286C366.587 56.7426 357.755 71.0385 350.118 85.9767C353.099 84.1582 355.946 82.1264 358.634 79.897C365.996 73.7925 372.992 67.2601 379.587 60.3337C385.937 53.8325 391.894 46.9577 397.424 39.7461C399.181 39.6611 400.932 39.4804 402.67 39.2047C396.64 47.3887 390.065 55.1565 382.989 62.4553C376.405 69.113 369.279 76.2755 363.089 81.4772C357.561 86.1786 351.729 90.5117 345.633 94.4487C345.633 94.4487 331.198 123.56 339.048 125.425C343.665 126.537 352.781 112.498 352.781 112.498C352.781 112.498 364.677 94.3463 371.847 86.1596C381.628 75.0391 390.049 68.6009 398.463 68.4838C403.365 68.396 406.254 73.6051 406.254 73.6051L408.559 70.0348H422.752C422.752 70.0348 396.246 115.014 394.124 118.402M433.704 13.7666C423.711 20.1755 409.883 25.9845 396.597 24.7407C393.232 28.2159 389.632 32.2398 386.025 36.6294C409.064 41.1874 429.249 26.9136 439.982 14.7615C443.897 10.3928 447.261 5.5597 449.997 0.370736C445.111 5.46017 439.643 9.95641 433.704 13.7666ZM234.377 35.832H220.879L213.248 48.1596H226.746L234.377 35.832ZM170.463 78.5215C176.206 70.6494 192.053 43.0603 192.053 43.0603C191.986 42.5333 191.74 42.0453 191.357 41.6777C190.973 41.3102 190.475 41.0854 189.946 41.041C187.751 40.9386 184.093 41.6776 176.828 50.7715C169.563 59.8654 163.923 67.1011 159.811 74.6294C155.304 82.8454 153.336 88.6397 155.926 90.2127C156.766 90.6338 157.732 90.7327 158.64 90.4907C160.323 90.0664 162.525 88.3763 165.547 84.9012C166.966 83.277 168.576 81.0895 170.463 78.5215ZM98.0335 41.2093C94.3023 38.3926 84.8133 44.9844 84.7621 51.7153C84.7036 58.629 93.3 60.7434 94.4121 60.7946C94.7392 60.8218 95.0671 60.7531 95.3558 60.597C95.5542 60.4813 95.7125 60.3077 95.8094 60.0995C96.8202 58.1134 97.7285 56.0769 98.531 53.9979C99.8406 50.574 101.501 43.8504 98.0335 41.2093ZM92.4074 65.0087C89.8346 64.2049 87.3758 63.0738 85.0913 61.6432C82.8776 60.2 81.0774 58.2057 79.8676 55.8562C79.7359 55.6367 79.5896 55.805 79.4579 56.0025C79.3262 56.2 78.5653 57.1511 73.488 64.599C68.4106 72.0468 60.8896 87.2789 67.935 89.8981C72.4271 91.6028 80.0139 83.6428 84.1329 78.4337C87.2153 74.3402 90.0633 70.0754 92.6635 65.6598C92.8318 65.2135 92.6635 65.1111 92.4148 65.0306M202.654 69.5959H207.6C207.6 69.5959 182.82 105.445 168.824 103.777C161.011 102.862 163.33 93.2196 163.33 93.2196C163.33 93.2196 152.356 106.067 142.274 103.462C133.129 101.114 139.033 85.9035 139.033 85.9035C137.994 86.3205 118.204 108.627 104.296 103.279C89.7444 97.6605 97.3019 78.9824 100.067 73.3637C102.416 68.6301 105.013 64.021 105.013 64.021C105.013 64.021 102.782 64.6502 101.355 64.9721C99.9284 65.294 97.8653 65.7037 97.8653 65.7037C97.8653 65.7037 90.9808 76.89 86.774 82.4722C82.5673 88.0544 64.6867 107.237 54.1514 103.418C43.6162 99.5993 46.2281 84.8573 52.1468 73.1515C61.7456 54.1662 84.5207 30.8351 98.2384 34.3761C112.095 37.9097 100.623 60.3849 100.623 60.3849C100.623 60.3849 103.382 60.7434 109.988 56.2366C119.499 49.7472 132.054 32.291 145.647 34.3395C152.056 35.3052 158.026 41.8531 149.861 54.2905C147.256 58.2851 142.889 61.8554 139.545 58.3217C137.46 56.1269 139.282 52.125 141.469 49.3887C142.321 48.2733 143.433 47.3843 144.709 46.8C145.985 46.2157 147.385 45.954 148.785 46.038C148.785 46.038 151.032 40.9167 145.318 40.9898C140.694 41.0776 128.988 51.8543 122.382 62.7407C116.324 72.7345 107.142 89.7591 116.36 93.4684C124.811 96.8777 140.891 77.7899 148.339 67.7888C155.787 57.7876 172.76 35.1223 186.998 34.2151C191.899 33.8932 194.818 38.3633 194.818 38.3633L196.465 35.7588H210.702C210.702 35.7588 183.888 80.5042 181.796 83.8916C180.15 86.54 177.962 92.4953 183.991 89.1592C190.019 85.823 202.654 69.5959 202.654 69.5959ZM194.906 141.294C184.423 134.037 171.871 130.374 159.13 130.854C155.682 130.948 152.304 131.853 149.272 133.497C146.239 135.14 143.636 137.476 141.674 140.313C136.246 130.839 125.513 125.023 108.92 125.154C82.1064 125.462 55.5122 137.826 34.4418 137.811C14.2493 137.811 -0.478026 125.118 -0.00247796 102.577C0.882773 63.0187 34.3101 27.3965 59.2581 11.3669C73.6416 2.15587 85.6693 -0.58036 93.5341 0.304891C99.27 0.941393 106.169 7.5698 101.816 17.3368C95.4217 31.6106 86.5911 30.44 86.9203 23.6141C87.1033 19.1732 90.059 16.3784 92.2831 14.8347C93.6951 13.8617 96.1899 13.5836 97.4921 13.5544C98.7578 12.4862 99.687 4.67261 89.4444 7.24057C79.2018 9.80853 66.7644 19.9048 54.9562 32.9494C43.148 45.9941 24.7626 70.6494 20.2193 96.5411C18.0976 108.547 19.4877 130.444 47.9547 130.195C72.0979 129.998 107.684 114.1 140.387 114.429C153.08 114.553 164.127 117.977 172.738 123.289C181.196 128.498 191.336 136.107 194.936 141.301" fill="white"/>
</g>
<defs>
<clipPath id="clip0_504_110">
<rect width="450" height="141.157" fill="white" transform="translate(0 0.153809)"/>
</clipPath>
</defs>
</svg>
