<svg width="450" height="158" viewBox="0 0 450 158" fill="none" xmlns="http://www.w3.org/2000/svg">
<g clip-path="url(#clip0_635_7)">
<path fill-rule="evenodd" clip-rule="evenodd" d="M405 117.124C392.153 117.124 381.702 106.673 381.702 93.8264C381.702 80.9801 392.153 70.5286 405 70.5286C417.846 70.5286 428.298 80.9801 428.298 93.8264C428.298 106.673 417.846 117.124 405 117.124ZM405.638 49.4647C430.099 49.4647 450 69.222 450 93.5073C450 117.792 430.099 137.55 405.638 137.55C381.177 137.55 361.276 117.792 361.276 93.5073C361.276 69.222 381.177 49.4647 405.638 49.4647ZM159.807 126.349C158.938 120.703 158.434 114.034 158.299 107.778C158.238 104.946 160.649 45.9713 160.649 45.9713L160.744 45.9752L161.175 28.6837C161.172 27.5615 161.164 26.4592 161.156 25.353C167.22 21.9318 174.16 18.5743 181.258 16.2733C181.522 23.3667 181.412 32.0922 181.188 40.7864C180.709 59.2856 179.893 79.2005 179.686 89.2798C179.488 98.8824 179.333 105.961 179.333 106.654C179.353 116.889 181.129 124.188 183.514 129.997C186.274 136.722 194.681 144.146 194.681 144.146L182.81 156.06C173.12 150.451 163.751 141.28 159.807 126.349ZM1.91732 128.618C0.795829 122.531 0.156255 114.819 0.00114832 107.65C-0.0601283 104.822 2.35136 45.9305 2.35136 45.9305L2.44711 45.933L2.87732 28.6664C2.87413 27.5462 2.86647 26.4452 2.85881 25.3409C8.92328 21.9235 15.8628 18.5711 22.9601 16.2733C23.2231 23.3571 23.1152 32.0698 22.8899 40.752C22.4111 59.225 21.5954 79.1124 21.388 89.1777C21.1901 98.7669 21.035 105.836 21.0356 106.529C21.0554 116.748 22.8311 124.038 25.2158 129.839C27.9771 136.553 36.3828 143.968 36.3828 143.968L24.3171 156.06C15.7697 151.193 7.40987 143.595 2.76179 131.735C2.37562 130.545 2.07115 129.454 1.91732 128.618ZM350.667 63.3069L337.699 69.9005C337.718 70.1941 337.614 70.4769 337.425 70.7526C337.765 75.4735 340.195 109.554 339.969 119.456C339.926 121.429 339.846 123.401 339.73 125.37C337.954 139.836 331.833 150.087 324.245 157.337L311.003 148.893C311.016 148.879 311.027 148.866 311.039 148.851L309.574 147.863C320.498 134.395 320.146 128.793 320.146 113.129V113.125C320.1 112.196 320.045 111.268 319.98 110.34C319.865 108.731 318.844 94.9569 317.982 82.8069C317.51 76.1271 317.111 68.0801 316.821 61.3926L316.682 59.195C316.587 57.0433 316.509 54.7715 316.463 52.5209C316.357 49.6543 316.299 47.8728 316.299 47.8728L316.435 47.8581C316.439 47.156 316.44 46.4424 316.455 45.7703C316.733 33.5915 317.99 27.7281 319.555 23.9009C323.789 13.5426 335.127 4.64346 345.828 0.954102L352.979 13.743C352.979 13.743 342.124 18.919 338.293 28.1954C335.969 33.8252 336.255 41.6877 336.576 51.4109L349.522 47.1522L350.667 63.3069ZM293.009 116.746C294.323 121.44 296.17 123.598 296.17 123.598L284.877 135.124C280.556 133.165 276.611 129.578 274.513 127.616H274.512C274.511 127.617 272.733 129.195 272.332 129.482C265.206 134.559 256.461 137.55 246.908 137.55C222.334 137.55 202.34 117.793 202.34 93.5073C202.34 69.2226 222.334 49.4647 246.908 49.4647C258.068 49.4647 268.121 53.5511 275.78 60.2749C280.667 57.5832 285.961 54.9043 291.352 53.1452V94.2815C291.352 100.154 291.504 111.367 293.01 116.746H293.009ZM247.495 116.486C260.778 116.486 273.192 108.719 273.192 93.1881C273.192 77.6558 260.779 69.8903 247.495 69.8903C234.211 69.8903 223.404 80.3418 223.404 93.1881C223.404 106.035 234.21 116.486 247.495 116.486H247.495ZM134.074 116.746C135.388 121.44 137.235 123.598 137.235 123.598L125.941 135.124C121.62 133.165 117.675 129.578 115.576 127.616H115.576C115.575 127.617 113.797 129.195 113.395 129.482C106.27 134.559 97.5248 137.55 87.972 137.55C63.3975 137.55 43.4041 117.793 43.4041 93.5073C43.4041 69.2226 63.3975 49.4647 87.972 49.4647C99.132 49.4647 109.185 53.5511 116.844 60.2749C121.731 57.5832 127.025 54.9043 132.415 53.1452V94.2815C132.415 100.154 132.568 111.367 134.074 116.746H134.074ZM87.6528 116.486C100.085 116.486 111.702 108.719 111.702 93.1881C111.702 77.6558 100.085 69.8903 87.6528 69.8903C75.2207 69.8903 65.1063 80.3418 65.1063 93.1881C65.1063 106.035 75.2207 116.486 87.6528 116.486Z" fill="white"/>
</g>
<defs>
<clipPath id="clip0_635_7">
<rect width="450" height="156.383" fill="white" transform="translate(0 0.954102)"/>
</clipPath>
</defs>
</svg>
