<svg width="450" height="71" viewBox="0 0 450 71" fill="none" xmlns="http://www.w3.org/2000/svg">
<g clip-path="url(#clip0_504_108)">
<path d="M361.409 52.324H361.071L346.713 2.37897H323.551V65.3438H338.894L338.03 13.6734H338.368L353.785 65.3438H376.008V2.37587H360.563L361.409 52.324ZM66.7353 2.37587L55.1807 66.0067H72.0417L80.5853 8.24921H80.9415L89.259 66.0098H106.021L94.519 2.37587H66.7353ZM161.049 2.38207L153.342 51.0322H152.992L145.322 2.38207H119.868L118.486 66.0067H134.093L134.483 8.78821H134.836L145.26 66.0067H161.09L171.517 8.8068L171.864 8.78821L172.269 66.0067H187.882L186.504 2.38207H161.049ZM16.5146 18.7444C16.2203 17.4433 16.2915 16.1423 16.4495 15.4236C16.8987 13.3791 18.2493 11.1394 22.1556 11.1394C25.8171 11.1394 27.9484 13.4503 27.9484 16.9012V20.8323H43.5331V16.3901C43.5331 2.50908 31.3218 0.34375 22.4808 0.34375C11.3878 0.34375 2.32997 4.10132 0.660284 14.4819C0.204915 17.2699 0.149155 19.8255 0.812074 23.0472C3.5226 36.0515 25.6932 39.8184 28.9118 48.0429C29.5158 49.5763 29.3207 51.565 29.0233 52.767C28.5183 54.8487 27.1151 57.014 22.9486 57.014C19.0516 57.014 16.6725 54.7371 16.6725 51.2646L16.6633 45.0907H-0.0707849L-0.0800781 50.01C-0.0800781 64.2039 10.8736 68.4695 22.6047 68.4695C33.9115 68.4695 43.18 64.5725 44.6793 53.9503C45.4413 48.4425 44.8806 44.8305 44.6111 43.483C41.9688 30.1534 18.2958 26.2131 16.5146 18.7444ZM219.572 18.8931C219.265 17.623 219.352 16.3343 219.498 15.6311C219.934 13.599 221.273 11.3841 225.145 11.3841C228.763 11.3841 230.888 13.661 230.888 17.0654V20.9686H246.306V16.5667C246.306 2.85602 234.206 0.696893 225.479 0.696893C214.482 0.696893 205.502 4.37082 203.87 14.6863C203.414 17.4619 203.343 19.999 204.012 23.1742C206.698 36.0422 228.648 39.7812 231.842 47.9159C232.425 49.4493 232.248 51.404 231.963 52.5966C231.455 54.6938 230.052 56.794 225.944 56.794C222.066 56.794 219.73 54.5513 219.73 51.1159L219.718 44.9885H203.132V49.8644C203.132 63.9127 213.99 68.1287 225.606 68.1287C236.774 68.1287 245.965 64.2658 247.436 53.7551C248.192 48.3186 247.635 44.7376 247.371 43.3963C244.754 30.2092 221.307 26.2905 219.572 18.8931ZM290.352 49.4338C290.365 50.2423 290.34 51.1778 290.207 51.8593C289.897 53.4423 288.562 56.4378 284.222 56.4378C279.898 56.4378 278.547 53.4423 278.237 51.8593C278.104 51.1778 278.073 50.2423 278.079 49.4338V2.36968H262.305V47.9747C262.281 49.155 262.395 51.5434 262.451 52.1784C263.523 64.0397 272.742 67.8716 284.219 67.8716C295.684 67.8716 304.9 64.0397 306.005 52.1784C306.061 51.5434 306.182 49.1519 306.163 47.9747V2.36968H290.349L290.352 49.4338ZM414.541 30.2339V39.552H420.932V48.7802C420.95 49.5825 420.919 50.4684 420.786 51.1964C420.507 52.9095 418.915 55.7997 414.414 55.7997C409.901 55.7997 408.315 52.9064 408.024 51.1964C407.903 50.4684 407.866 49.5825 407.884 48.7802V19.6675C407.884 18.6329 407.949 17.5022 408.138 16.6813C408.47 15.1138 409.814 12.0625 414.352 12.0625C419.126 12.0625 420.306 15.2842 420.591 16.6813C420.774 17.5641 420.786 19.0851 420.786 19.0789V22.663H436.517V20.538C436.51 20.538 436.572 18.3634 436.39 16.3777C435.234 4.41109 425.535 0.644232 414.482 0.644232C403.423 0.644232 393.954 4.44207 392.581 16.3777C392.448 17.4062 392.309 19.4073 392.309 20.538L392.302 47.3087C392.309 48.5076 392.346 49.3935 392.519 51.5124C393.548 63.098 403.423 67.2489 414.47 67.2489C425.523 67.2489 435.398 63.098 436.433 51.5124C436.603 49.3904 436.628 48.5045 436.631 47.3087V30.2339H414.541Z" fill="white"/>
</g>
<defs>
<clipPath id="clip0_504_108">
<rect width="450" height="70" fill="white" transform="translate(0 0.153809)"/>
</clipPath>
</defs>
</svg>
