<svg width="328" height="330" viewBox="0 0 328 330" fill="none" xmlns="http://www.w3.org/2000/svg">
<rect x="163.854" y="254.557" width="60" height="119.999" transform="rotate(-135 163.854 254.557)" fill="white"/>
<rect x="163.853" y="169.706" width="60" height="119.999" transform="rotate(-135 163.853 169.706)" fill="white"/>
<rect x="163.854" y="84.8524" width="60" height="59.9995" transform="rotate(-135 163.854 84.8524)" fill="white"/>
<rect x="258.889" y="159.523" width="45.6" height="45.5996" transform="rotate(-135 258.889 159.523)" fill="white"/>
<rect x="111.245" y="201.948" width="45.6" height="45.5996" transform="rotate(-135 111.245 201.948)" fill="white"/>
<rect x="68.8174" y="159.523" width="32.4" height="32.3997" transform="rotate(-135 68.8174 159.523)" fill="white"/>
<path d="M25.08 329.572C20.8 329.572 16.92 328.652 13.44 326.812C10 324.932 7.28 322.352 5.28 319.072C3.32 315.752 2.34 312.012 2.34 307.852C2.34 303.692 3.32 299.972 5.28 296.692C7.28 293.372 10 290.792 13.44 288.952C16.92 287.072 20.82 286.132 25.14 286.132C28.78 286.132 32.06 286.772 34.98 288.052C37.94 289.332 40.42 291.172 42.42 293.572L36.18 299.332C33.34 296.052 29.82 294.412 25.62 294.412C23.02 294.412 20.7 294.992 18.66 296.152C16.62 297.272 15.02 298.852 13.86 300.892C12.74 302.932 12.18 305.252 12.18 307.852C12.18 310.452 12.74 312.772 13.86 314.812C15.02 316.852 16.62 318.452 18.66 319.612C20.7 320.732 23.02 321.292 25.62 321.292C29.82 321.292 33.34 319.632 36.18 316.312L42.42 322.072C40.42 324.512 37.94 326.372 34.98 327.652C32.02 328.932 28.72 329.572 25.08 329.572ZM67.4152 286.132C71.2952 286.132 74.6752 286.892 77.5552 288.412C80.4352 289.932 82.6752 292.172 84.2752 295.132C85.8752 298.092 86.6752 301.672 86.6752 305.872V328.852H76.9552V318.772H57.7552V328.852H48.1552V305.872C48.1552 301.672 48.9552 298.092 50.5552 295.132C52.1552 292.172 54.3952 289.932 57.2752 288.412C60.1552 286.892 63.5352 286.132 67.4152 286.132ZM76.9552 310.972V304.972C76.9552 301.492 76.0952 298.872 74.3752 297.112C72.6552 295.312 70.3152 294.412 67.3552 294.412C64.3552 294.412 61.9952 295.312 60.2752 297.112C58.5952 298.872 57.7552 301.492 57.7552 304.972V310.972H76.9552ZM135.029 286.852V328.852H125.309V311.632H106.229V328.852H96.5091V286.852H106.229V303.412H125.309V286.852H135.029ZM164.212 286.132C168.092 286.132 171.472 286.892 174.352 288.412C177.232 289.932 179.472 292.172 181.072 295.132C182.672 298.092 183.472 301.672 183.472 305.872V328.852H173.752V318.772H154.552V328.852H144.952V305.872C144.952 301.672 145.752 298.092 147.352 295.132C148.952 292.172 151.192 289.932 154.072 288.412C156.952 286.892 160.332 286.132 164.212 286.132ZM173.752 310.972V304.972C173.752 301.492 172.892 298.872 171.172 297.112C169.452 295.312 167.112 294.412 164.152 294.412C161.152 294.412 158.792 295.312 157.072 297.112C155.392 298.872 154.552 301.492 154.552 304.972V310.972H173.752ZM210.766 286.432C216.646 286.432 221.226 287.872 224.506 290.752C227.826 293.632 229.486 297.672 229.486 302.872C229.486 307.792 227.986 311.652 224.986 314.452C222.026 317.252 217.866 318.652 212.506 318.652C210.746 318.652 209.026 318.472 207.346 318.112C205.706 317.752 203.926 317.152 202.006 316.312V328.852H192.406V304.012C192.406 298.372 193.966 294.032 197.086 290.992C200.246 287.952 204.806 286.432 210.766 286.432ZM210.826 311.332C213.666 311.332 215.846 310.612 217.366 309.172C218.926 307.732 219.706 305.692 219.706 303.052C219.706 300.372 218.926 298.292 217.366 296.812C215.846 295.332 213.726 294.592 211.006 294.592C208.166 294.592 205.946 295.412 204.346 297.052C202.786 298.692 202.006 300.992 202.006 303.952V308.632C203.206 309.472 204.566 310.132 206.086 310.612C207.646 311.092 209.226 311.332 210.826 311.332ZM273.458 286.852V328.852H264.038V323.752C261.158 327.632 256.918 329.572 251.318 329.572C246.358 329.572 242.478 328.012 239.678 324.892C236.918 321.732 235.538 317.252 235.538 311.452V286.852H245.258V311.152C245.258 314.512 246.038 317.052 247.598 318.772C249.198 320.452 251.358 321.292 254.078 321.292C256.998 321.292 259.338 320.392 261.098 318.592C262.858 316.752 263.738 314.052 263.738 310.492V286.852H273.458ZM321.938 286.852V328.852H312.278V294.772H293.318V328.852H283.658V286.852H321.938Z" fill="white"/>
</svg>
